HIERARCHY
ROOT pelvis
{
  OFFSET 0 100 0
  CHANNELS 6 Xposition Yposition Zposition Zrotation Xrotation Yrotation
  JOINT pelvis_right_femur
  {
    OFFSET -10.78128 -3.44521 -0.5502486
    CHANNELS 3 Zrotation Xrotation Yrotation
    JOINT right_femur_tibia
    {
      OFFSET -0.8047443 -44.0398 -0.1307829
      CHANNELS 3 Zrotation Xrotation Yrotation
      JOINT right_tibia_foot
      {
        OFFSET 3.006224 -47.83518 -5
        CHANNELS 3 Zrotation Xrotation Yrotation
        End Site
        {
          OFFSET 0 -5 15
        }
      }
    }
  }
  JOINT pelvis_left_femur
  {
    OFFSET 10.78128 -3.44521 -0.5502486
    CHANNELS 3 Zrotation Xrotation Yrotation
    JOINT left_femur_tibia
    {
      OFFSET 0.8047443 -44.0398 -0.1307829
      CHANNELS 3 Zrotation Xrotation Yrotation
      JOINT left_tibia_foot
      {
        OFFSET -4.370144 -48.10324 -4.275266
        CHANNELS 3 Zrotation Xrotation Yrotation
        End Site
        {
          OFFSET 0 -5 15
        }
      }
    }
  }
  JOINT pelvis_spine1
  {
    OFFSET 0 6.468898 -3.129235
    CHANNELS 3 Zrotation Xrotation Yrotation
    JOINT spine1
    {
      OFFSET 0 23.15396 4.99043
      CHANNELS 3 Zrotation Xrotation Yrotation
      JOINT spine2
      {
        OFFSET 0 20.79997 -5.064912
        CHANNELS 3 Zrotation Xrotation Yrotation
        JOINT neck
        {
          OFFSET 0 14.38658 9.616178
          CHANNELS 3 Zrotation Xrotation Yrotation
          End Site
          {
            OFFSET 0 20 0
          }
        }
      }
      JOINT right_manubrium
      {
        OFFSET -5.722621 16.35077 3.967754
        CHANNELS 3 Zrotation Xrotation Yrotation
        JOINT right_clavicle
        {
          OFFSET -13.16364 1.694482 -4.693211
          CHANNELS 3 Zrotation Xrotation Yrotation
          JOINT right_humerus
          {
            OFFSET -28.5034 -0.3100689 -2.792744
            CHANNELS 3 Zrotation Xrotation Yrotation
            JOINT right_radius
            {
              OFFSET -25.15693 0.02248979 -1.271978
              CHANNELS 3 Zrotation Xrotation Yrotation
              End Site
              {
                OFFSET -15 0 0
              }
            }
          }
        }
      }
      JOINT left_manubrium
      {
        OFFSET 5.722621 16.35077 3.967754
        CHANNELS 3 Zrotation Xrotation Yrotation
        JOINT left_clavicle
        {
          OFFSET 13.16364 1.694482 -4.693211
          CHANNELS 3 Zrotation Xrotation Yrotation
          JOINT left_humerus
          {
            OFFSET 29.39168 -1.063119 -2.237045
            CHANNELS 3 Zrotation Xrotation Yrotation
            JOINT left_radius
            {
              OFFSET 24.59957 -0.9528479 0.9047498
              CHANNELS 3 Zrotation Xrotation Yrotation
              End Site
              {
                OFFSET 15 -0 -0
              }
            }
          }
        }
      }
    }
  }
}
MOTION
Frames: 21
Frame Time: 0.0416666666667
0 103.5113 0 -0.1509471 -1.090007 0.131206 3.616288 -15.26724 8.236593 -0 38.57851 -0 -7.287042 -13.85658 -1.888188 -6.152188 7.670049 -21.53412 -0 2.5909 -0 7.670284 -16.63265 25.73037 -2.24071 -3.811246 4.921797 1.89387 10.0689 -7.425409 1.659942 22.12966 6.306684 2.64279 -25.62091 9.856311 4.845739 -21.56069 11.25561 85.67208 31.50502 -17.32654 -0 0 18.32442 -8.469955 8.403034 4.071268 6.998291 -20.4879 -0.7547421 -94.93115 23.35953 23.08472 0 0 -10.32604 14.11892 18.43999 -2.630609
0.3837992 103.3797 1.911916 -0.3891649 -0.6219439 0.3207794 4.218013 -18.29145 8.062532 -0 37.12349 -0 -7.602159 -13.02491 -1.864398 -6.03878 8.745758 -21.4446 -0 3.184293 -0 7.19638 -17.75125 25.32364 -2.152028 -3.348361 4.583584 1.97905 9.795581 -7.457549 1.65678 22.05852 6.606217 2.900474 -25.77705 10.0115 4.804829 -20.89166 11.17216 85.96895 31.76886 -17.93665 -0 0 17.42279 -8.163437 8.13701 3.836671 7.266608 -20.72454 -0.798135 -94.6244 23.98065 22.26233 0 0 -11.67487 13.79772 18.39304 -2.027647
0.6968618 103.2036 4.206487 -0.4118592 0.4571371 0.5619408 5.09751 -23.45699 7.401637 -0 32.152 -0 -7.14785 -11.28232 -1.644882 -6.211938 10.50315 -20.54648 -0 5.233377 -0 8.901721 -18.18606 25.01302 -2.485738 -2.807599 4.24093 2.558432 9.85356 -7.79936 1.444671 21.72028 7.02957 3.08304 -26.09684 10.08206 4.88967 -19.9695 11.47607 86.7512 33.26034 -19.33639 -0 0 14.96743 -8.235964 8.180375 4.3735 7.130256 -21.23137 -1.333524 -92.35726 23.08099 19.7709 0 0 -16.20842 14.51132 16.54188 -2.576648
1.010661 102.8527 7.044119 -0.406352 0.6237749 0.8602808 5.130697 -26.10062 5.434648 -0 27.42887 -0 -7.072589 -7.653993 -0.8836056 -6.278601 11.29766 -18.83678 -0 6.72164 -0 9.159052 -18.74286 23.83927 -2.537049 -2.480381 3.9722 2.785485 10.34673 -7.970152 1.158887 21.5187 7.424777 3.312461 -26.30213 9.910538 4.302822 -19.69084 11.84917 87.94573 32.40331 -20.52999 -0 0 12.86649 -10.09245 8.376423 5.545767 7.22936 -22.26085 -2.159161 -90.70895 21.49891 18.06283 0 0 -19.44874 15.17433 15.42147 -3.418035
1.38118 102.2169 10.68313 -0.033758 -0.3048609 1.211733 4.038401 -26.5553 1.528866 -0 21.83212 -0 -7.232235 -1.881935 0.5073341 -6.498207 11.49664 -15.87814 -0 8.265598 -0 9.670666 -18.69993 22.18715 -2.585805 -2.431919 3.781622 2.779458 11.58933 -8.082286 0.6627578 21.60726 7.809821 3.452347 -26.17598 9.40095 2.86757 -20.02386 12.52975 90.04682 29.42596 -21.87309 -0 0 10.01728 -14.23633 8.617044 7.802335 7.229876 -24.12947 -3.784575 -88.42884 18.1502 15.92732 0 0 -23.39653 16.86347 14.20547 -5.807655
1.809698 101.3161 15.18792 0.6426041 -1.814773 1.612319 2.63332 -25.6612 -2.705418 -0 15.98989 -0 -7.555741 3.599991 1.816319 -6.873501 11.79273 -12.72724 -0 10.13416 -0 10.50147 -18.26064 20.79977 -2.644738 -2.625067 3.725545 2.572564 12.96105 -8.086804 0.2231866 21.96 8.017053 3.418567 -25.58712 8.801652 0.9668456 -20.54134 13.12242 92.56305 25.64783 -23.18454 -0 0 6.938912 -18.70594 8.596525 10.0299 7.113841 -26.20908 -5.645143 -86.02184 14.40169 13.52155 0 0 -27.99764 18.80586 12.99314 -8.587243
2.261948 100.2275 20.5715 1.575218 -3.728691 2.040262 1.421754 -23.94429 -6.479436 -0 10.15592 -0 -7.941715 7.982614 2.634682 -7.44545 12.64603 -9.781195 -0 12.85925 -0 11.75323 -17.43792 20.05112 -2.678867 -3.073101 3.798325 2.17342 14.23765 -7.97618 -0.02275535 22.54749 7.952109 3.163004 -24.4727 8.222412 -1.345959 -21.08503 13.44053 95.47076 21.5603 -24.48907 -0 0 3.77241 -22.7086 8.256443 11.78315 6.800639 -28.24248 -7.57491 -83.56442 10.80883 10.86579 0 0 -33.5367 20.4787 11.84108 -10.97783
2.681129 99.14134 26.74092 2.549317 -5.945918 2.434047 0.8083156 -21.81921 -8.948622 -0 5.902809 -0 -8.379407 10.9817 2.534487 -8.103066 14.08057 -7.358371 -0 16.93938 -0 13.34488 -16.08301 20.12447 -2.577247 -3.716497 3.917196 1.612296 15.32959 -7.801032 0.02483735 23.26502 7.533707 2.672896 -22.92157 7.731188 -3.868826 -21.62375 13.39562 98.57866 17.69906 -25.60123 -0 0 0.9418971 -25.75214 7.704623 12.90427 6.106567 -29.88016 -9.450112 -81.24707 7.871497 8.426073 0 0 -39.45392 21.23402 11.01448 -12.00137
3.000057 98.35948 33.47912 3.299462 -8.343309 2.671081 0.9319142 -19.66469 -9.511444 -0 4.964461 -0 -8.832698 12.91726 1.294436 -8.605689 15.52061 -5.534674 -0 22.99155 -0 15.31544 -13.84143 20.92592 -2.314841 -4.374393 4.016335 1.012985 16.37324 -7.693248 0.3658209 23.9067 6.754356 2.009518 -21.15973 7.315673 -6.14576 -22.17657 13.11754 101.5124 14.8445 -26.30984 0 0 -1.138285 -27.76991 7.241436 13.63251 4.798511 -30.81654 -11.25794 -79.15439 5.6911 6.825198 0 0 -44.74783 20.79516 10.52772 -11.12937
3.171092 98.13447 40.46505 3.760889 -10.70751 2.616821 1.469245 -17.44384 -8.35379 -0 7.217565 -0 -9.15112 14.03888 -0.723772 -8.753587 15.97959 -4.235929 -0 30.59956 -0 17.77129 -10.56596 22.05937 -2.094036 -4.828619 4.152987 0.5382488 17.55127 -7.737702 0.8403326 24.30846 5.762178 1.329212 -19.42797 6.891827 -7.627159 -22.76878 12.93086 103.7579 13.67743 -26.53069 0 0 -2.291975 -29.00159 7.22721 14.36464 2.885907 -30.9991 -13.02957 -77.27185 4.049859 6.388281 0 0 -48.62248 19.66432 10.08289 -8.968992
3.205397 98.48553 47.37486 4.061112 -12.68115 2.210033 1.902859 -14.88963 -6.343706 -0 10.712 -0 -9.178233 14.02892 -2.74356 -8.559423 14.95064 -3.462138 -0 37.41103 -0 20.6992 -6.704398 23.07298 -2.168125 -4.99649 4.41325 0.2907974 18.75608 -7.874062 1.211056 24.43992 4.807273 0.7599147 -17.94835 6.417468 -8.061554 -23.44878 13.06497 104.9331 14.33689 -26.26471 0 0 -2.524298 -29.60428 7.761917 15.3284 0.7178009 -30.55104 -14.65137 -75.59206 2.809722 7.002101 0 0 -51.02008 18.60138 9.430307 -6.669365
3.171506 99.24061 53.98716 4.254781 -13.86156 1.460587 2.002147 -12.16393 -4.108398 -0 14.20142 -0 -8.870109 12.6271 -4.262185 -8.193358 12.7981 -3.294166 -0 40.96317 -0 23.93281 -2.965212 23.74091 -2.578649 -4.950157 4.785947 0.2980238 19.67307 -8.017291 1.343487 24.28868 4.070022 0.3124583 -16.96077 5.949799 -7.510419 -24.2492 13.48075 104.9536 16.63494 -25.52965 0 0 -1.842079 -29.49034 8.666365 16.52194 -1.321495 -29.54231 -15.83204 -74.18195 2.035663 8.47255 0 0 -52.27384 17.81278 8.485962 -4.682889
3.157864 100.1849 60.19213 4.344255 -14.00989 0.4286371 1.788314 -9.725599 -1.8001 -0 17.74782 -0 -8.217264 9.962271 -5.201318 -7.882183 10.26403 -3.81292 -0 40.41451 -0 27.29563 0.1818894 24.1007 -3.241232 -4.814362 5.206721 0.5548997 20.07057 -8.149128 1.236116 23.86476 3.613963 -0.05283273 -16.62583 5.582093 -6.113194 -25.09592 14.02827 103.9332 20.35499 -24.40505 0 0 -0.3662525 -28.51161 9.707171 17.7799 -3.010336 -28.00993 -16.3038 -73.13342 1.811311 10.55965 0 0 -52.63117 17.18962 7.220664 -2.959861
3.236233 101.1538 65.92976 4.361396 -13.07147 -0.783279 1.34995 -7.996114 0.5680975 -0 21.73876 -0 -7.216203 6.28846 -5.627481 -7.83083 8.055134 -5.139746 -0 36.31033 -0 30.48296 2.470136 24.35733 -4.065723 -4.705038 5.607957 1.050039 19.8403 -8.291214 0.9608248 23.26742 3.453799 -0.3416428 -17.0048 5.416755 -4.006951 -25.77669 14.56704 102.0252 25.19729 -23.04833 -0 0 1.632385 -26.55925 10.67796 18.74934 -4.177264 -26.06029 -15.88156 -72.63751 2.222666 12.86182 0 0 -51.94014 16.7444 5.745238 -1.624621
3.432736 102.0556 71.13379 4.356427 -11.15967 -2.046151 0.8291979 -7.342904 2.969119 -0 26.25485 -0 -5.908094 1.900894 -5.648236 -8.15423 6.7253 -7.377844 -0 30.03461 -0 33.01013 3.7059 24.84215 -4.962009 -4.691401 5.932187 1.735839 18.98041 -8.458457 0.6372991 22.66279 3.587805 -0.5036858 -18.03889 5.559538 -1.399964 -25.99708 14.95826 99.43751 30.68673 -21.69556 -0 0 3.790947 -23.59402 11.38781 18.93569 -4.638696 -23.92091 -14.5014 -72.94234 3.358583 14.82702 0 0 -49.8551 16.62265 4.334905 -1.016482
3.717729 102.8624 75.71476 4.332795 -8.513779 -3.233491 0.4909879 -8.171787 5.409305 -0 30.90723 -0 -4.447561 -2.896475 -5.437109 -8.786751 6.571762 -10.47498 -0 23.28191 -0 34.34612 3.73518 25.87901 -5.803301 -4.733078 6.138761 2.498553 17.57032 -8.623988 0.4126868 22.18087 3.986501 -0.4591636 -19.52647 6.091088 1.392546 -25.50667 15.04527 96.47614 36.26718 -20.59559 -0 0 5.80886 -19.62923 11.68229 17.89148 -4.265553 -21.86796 -12.26943 -74.1841 5.341272 15.98358 0 0 -46.30854 16.87398 3.313794 -1.26308
4.02277 103.5809 79.59747 4.192966 -5.447569 -4.239076 0.7205676 -10.78437 7.8743 -0 34.83757 -0 -3.140585 -7.778284 -5.176545 -9.442483 7.525159 -14.11145 -0 17.4638 -0 34.01496 2.381533 27.52456 -6.396211 -4.680994 6.200523 3.182689 15.73933 -8.719816 0.4124157 21.844 4.576305 -0.1503331 -21.1836 7.015113 3.977719 -24.25437 14.6961 93.48866 41.28244 -19.88385 -0 0 7.60508 -14.84918 11.46784 15.46644 -3.042409 -20.13494 -9.454444 -76.33508 8.302171 16.24007 0 0 -41.63763 17.30361 2.991383 -2.04288
4.275508 104.2135 82.80916 3.782044 -2.384259 -4.96968 1.799827 -14.96246 10.11517 -0 36.90084 -0 -2.360819 -12.12793 -4.930732 -9.741962 9.145571 -17.63888 -0 13.36727 -0 31.73947 -0.5083771 29.33788 -6.525425 -4.40375 6.097828 3.654176 13.72007 -8.692392 0.6643238 21.59441 5.243414 0.4099372 -22.74757 8.185633 5.936401 -22.50592 13.92644 90.81629 44.80447 -19.56181 -0 0 9.242956 -9.954841 10.75635 12.05688 -1.11285 -18.93808 -6.499969 -79.20898 12.08442 15.97428 0 0 -36.4506 17.56266 3.643658 -2.81915
4.435827 104.7209 85.55853 3.045976 0.1110646 -5.360479 3.493233 -19.71297 11.48468 -0 36.25702 -0 -2.336894 -14.79272 -4.564791 -9.491072 10.77836 -20.16609 -0 11.09017 -0 27.78494 -4.696713 30.42808 -6.106975 -3.934224 5.828178 3.855613 11.9363 -8.568127 1.030832 21.37827 5.882308 1.124223 -24.05349 9.280246 6.922731 -20.81593 13.01061 88.8604 45.83485 -19.64192 -0 0 10.62709 -6.30366 9.79479 8.682395 1.168852 -18.53296 -4.030204 -82.34868 15.86486 15.74459 0 0 -31.61622 17.44088 5.305058 -3.292333
4.511636 105.0172 88.20435 2.163687 1.513835 -5.433108 4.930197 -23.67295 11.15165 -0 33.12577 -0 -2.959142 -14.56924 -3.821665 -8.868352 11.86566 -20.96071 -0 10.145 -0 23.14662 -9.206979 30.05575 -5.322509 -3.459618 5.432209 3.818969 10.89583 -8.44074 1.256723 21.21005 6.45791 1.85027 -25.04069 9.946657 6.826112 -19.74761 12.37691 88.04032 44.06002 -20.18699 -0 0 11.3597 -5.245627 9.043224 6.547484 3.300473 -19.10685 -2.645317 -84.96955 18.35556 15.74728 0 0 -28.14705 17.14511 7.489481 -3.681478
4.538864 105.0178 91.11146 1.445688 1.664995 -5.294015 5.301466 -25.95978 8.817199 -0 28.69092 -0 -3.882425 -11.29327 -2.594685 -8.25128 12.24548 -19.95122 -0 9.899195 -0 19.11163 -12.80092 28.35246 -4.51478 -3.144024 4.999609 3.626888 10.84425 -8.374608 1.174645 21.15728 6.984958 2.46251 -25.67973 10.05442 5.849014 -19.49626 12.27506 88.46012 40.26318 -21.10202 -0 0 11.05862 -7.057231 8.760972 6.23685 4.875461 -20.55779 -2.55167 -86.33493 18.73633 15.64168 0 0 -26.70416 17.18126 9.382731 -4.505051
